<?xml version="1.0" encoding="UTF-8"?>
<svg version="1.1" xmlns="http://www.w3.org/2000/svg" width="386" height="296">
<path d="M0 0 C1.81840401 2.40342952 3.51700673 4.80886328 5.1875 7.3125 C5.67710205 8.03566406 6.1667041 8.75882813 6.67114258 9.50390625 C10.55614715 15.26722718 14.33415511 21.09461164 18 27 C17.18660156 27.43828125 16.37320313 27.8765625 15.53515625 28.328125 C0.07921886 36.88191712 -13.93585428 47.1211357 -27 59 C-28.19302734 60.06734375 -28.19302734 60.06734375 -29.41015625 61.15625 C-51.3820541 81.89197937 -65.17093416 110.39572679 -70 140 C-70.05559586 141.99922713 -70.07843255 144.00153851 -70 146 C-68.94425781 145.49339844 -68.94425781 145.49339844 -67.8671875 144.9765625 C-49.98197042 136.89786131 -30.38567504 137.78913231 -12 144 C-2.85514202 147.62246122 5.70582147 152.35734033 13 159 C14.13501953 160.01513672 14.13501953 160.01513672 15.29296875 161.05078125 C29.29956824 174.25968495 36.82797087 191.87886532 37.4050293 210.99829102 C37.67285163 234.72573873 28.60739952 253.90629319 12.92578125 271.30078125 C-0.57437013 284.54378689 -19.61522906 288.79349136 -37.93505859 289.02734375 C-58.22939651 288.75860813 -77.72657165 280.35292122 -92.5 266.6875 C-93.325 265.800625 -94.15 264.91375 -95 264 C-95.65484375 263.32710938 -96.3096875 262.65421875 -96.984375 261.9609375 C-121.48303071 236.0261537 -128.99057115 202.2812107 -128.28125 167.51953125 C-126.61437977 119.82620684 -102.05591057 77.01810271 -68.46875 44.28125 C-64.66410444 40.76556486 -60.71512385 37.4770288 -56.63574219 34.28515625 C-55.47748576 33.37514702 -54.32504056 32.45771871 -53.17675781 31.53515625 C-13.91509507 0 -13.91509507 0 0 0 Z " fill="#000000" transform="translate(345,3)"/>
<path d="M0 0 C4.50458151 3.14450255 7.25935589 8.38110854 10.33398438 12.84863281 C11.08744141 13.91146484 11.84089844 14.97429688 12.6171875 16.06933594 C13.32423828 17.08833984 14.03128906 18.10734375 14.75976562 19.15722656 C15.40985596 20.09236084 16.05994629 21.02749512 16.72973633 21.9909668 C17.15601318 22.78962158 17.58229004 23.58827637 18.02148438 24.41113281 C16.63849815 28.56009149 14.65724774 28.9410655 10.83398438 30.97363281 C-25.29398547 50.83820787 -53.54311008 82.59120554 -65.60742188 122.27832031 C-67.74258994 129.87099535 -68.97685004 137.59814121 -69.97851562 145.41113281 C-68.81449219 144.90453125 -68.81449219 144.90453125 -67.62695312 144.38769531 C-47.39327883 136.03345748 -26.08154533 137.20260217 -5.96972656 145.52392578 C13.26526169 154.09429696 26.22288191 169.11611029 34.02148438 188.41113281 C40.65481558 206.94316318 39.57867982 227.02340064 31.23461914 244.7878418 C21.44643999 264.45506871 7.99754814 277.99241401 -12.97851562 285.41113281 C-32.31781303 291.81093647 -54.35841143 288.05814163 -72.42382812 279.84472656 C-95.74998325 267.9610707 -112.51384049 244.9011638 -120.97851562 220.41113281 C-125.66094512 205.26322411 -127.37611893 189.96668215 -127.29101562 174.16113281 C-127.28886047 173.43680054 -127.28670532 172.71246826 -127.28448486 171.96618652 C-127.23159382 160.86518302 -126.70722068 150.20827303 -123.97851562 139.41113281 C-123.77983887 138.59322266 -123.58116211 137.7753125 -123.37646484 136.93261719 C-120.20813757 124.14539069 -115.87659366 112.18635515 -109.97851562 100.41113281 C-109.61274414 99.67830078 -109.24697266 98.94546875 -108.87011719 98.19042969 C-99.71604273 80.16612804 -87.68814686 64.38679351 -73.5390625 50.00244141 C-72.13217721 48.5678234 -70.74910536 47.1099456 -69.36914062 45.64941406 C-62.80453324 38.81664461 -55.55066031 33.06930405 -47.97851562 27.41113281 C-47.40053223 26.97768555 -46.82254883 26.54423828 -46.22705078 26.09765625 C-37.49346359 19.59124478 -28.44186151 13.79474533 -18.97851562 8.41113281 C-18.23504883 7.9828418 -17.49158203 7.55455078 -16.72558594 7.11328125 C-14.42467673 5.79668733 -12.11088097 4.50648131 -9.79101562 3.22363281 C-9.07196045 2.81234131 -8.35290527 2.4010498 -7.61206055 1.97729492 C-2.55059671 -0.75913614 -2.55059671 -0.75913614 0 0 Z " fill="#000000" transform="translate(130.978515625,3.5888671875)"/>
</svg>
